<?xml version="1.0" standalone="no"?>
<!DOCTYPE svg PUBLIC "-//W3C//DTD SVG 20010904//EN"
 "http://www.w3.org/TR/2001/REC-SVG-20010904/DTD/svg10.dtd">
<svg version="1.0" xmlns="http://www.w3.org/2000/svg"
 width="102.000000pt" height="102.000000pt" viewBox="0 0 102.000000 102.000000"
 preserveAspectRatio="xMidYMid meet">
<metadata>
Created by potrace 1.14, written by Peter Selinger 2001-2017
</metadata>
<g transform="translate(0.000000,102.000000) scale(0.100000,-0.100000)"
fill="#000000" stroke="none">
<path d="M0 818 l0 -113 248 -301 c136 -165 252 -301 257 -301 6 0 124 135
262 300 l253 301 0 113 0 113 -510 0 -510 0 0 -112z m958 75 c-9 -10 -50 -58
-92 -108 -68 -80 -84 -93 -143 -117 -97 -40 -138 -40 -155 -3 -19 43 -109 61
-128 25 -16 -30 -35 -24 -64 21 -29 43 -83 73 -113 62 -10 -3 -28 -15 -41 -26
-13 -12 -26 -17 -30 -11 -5 5 -32 38 -62 74 -30 36 -60 73 -69 83 -13 16 9 17
449 17 440 0 462 -1 448 -17z m-838 -128 c23 -25 23 -26 6 -43 -11 -9 -16 -12
-12 -5 9 17 -4 43 -23 43 -41 0 -56 -55 -19 -69 15 -5 18 -10 9 -16 -19 -11
-54 28 -54 61 0 29 25 54 53 54 9 0 27 -11 40 -25z m843 -25 c31 -10 36 -14
26 -26 -6 -8 -19 -12 -28 -9 -9 2 -22 1 -29 -4 -12 -7 -11 -11 1 -22 10 -10
11 -18 4 -30 -7 -12 -22 -15 -61 -12 l-51 4 28 -25 c48 -45 30 -51 -21 -7 -29
25 -32 32 -23 49 8 15 17 19 33 14 21 -5 22 -4 9 11 -20 25 -3 21 36 -9 39
-30 44 -13 9 31 -22 27 -23 31 -9 47 10 11 20 15 27 9 6 -4 28 -14 49 -21z
m-784 -53 c0 -7 -16 -25 -35 -41 -27 -22 -38 -26 -47 -17 -9 9 -3 20 28 45 39
33 56 37 54 13z m55 -61 c14 -19 22 -37 17 -40 -5 -4 -11 -1 -13 6 -3 8 -16 3
-39 -15 -27 -20 -38 -24 -47 -15 -9 9 -2 19 26 44 28 25 33 33 19 34 -10 0
-15 5 -12 10 10 17 22 11 49 -24z m516 25 c0 -20 -51 -61 -76 -61 -26 0 -24 2
22 35 54 39 54 39 54 26z m-124 -46 c-27 -20 -86 -20 -86 0 0 11 12 15 53 15
48 -1 50 -2 33 -15z m209 -19 c13 -19 14 -29 5 -45 -13 -25 -47 -44 -61 -35
-6 3 -10 -2 -9 -12 4 -31 1 -40 -21 -68 -17 -22 -24 -25 -36 -15 -12 11 -13 9
-8 -12 4 -18 0 -31 -19 -48 l-24 -23 -36 28 c-20 16 -36 32 -36 35 0 4 9 18
20 32 14 17 26 24 37 20 14 -5 13 -8 -5 -14 -12 -5 -22 -13 -22 -19 0 -14 17
-13 22 2 3 7 10 8 17 4 11 -7 11 -10 0 -16 -10 -7 -10 -11 1 -25 16 -19 27
-10 32 28 2 21 -4 33 -22 47 l-25 19 24 25 c15 15 35 26 51 26 24 0 26 3 22
32 -8 56 62 81 93 34z m-201 -7 c-11 -19 -76 -41 -87 -30 -8 8 38 28 91 40 2
1 0 -4 -4 -10z m-351 -33 c-2 -22 1 -26 17 -21 10 3 21 1 25 -5 4 -6 -4 -10
-18 -10 -13 0 -36 -9 -50 -20 -20 -16 -27 -17 -36 -6 -8 10 -5 18 14 36 14 13
25 32 25 43 0 11 5 17 13 14 6 -2 11 -16 10 -31z m99 -103 c24 -21 23 -55 -2
-78 -44 -39 -108 21 -75 71 18 28 51 31 77 7z m82 -98 c9 -13 16 -30 16 -37
-1 -7 -6 -3 -13 10 -14 25 -29 20 -20 -6 5 -14 3 -15 -7 -5 -11 10 -18 9 -35
-7 -21 -19 -23 -20 -36 -4 -11 14 -12 18 -1 22 7 2 25 15 40 28 34 29 36 29
56 -1z m114 7 c-10 -2 -18 -10 -18 -18 0 -11 5 -11 24 -2 51 22 74 -17 38 -62
-15 -19 -22 -21 -38 -12 -18 11 -18 11 4 12 12 0 25 7 29 15 8 22 -4 30 -21
16 -20 -17 -60 -10 -64 11 -4 20 37 60 52 50 7 -4 4 -8 -6 -10z m-54 -157
c-20 -31 -20 -31 -37 2 -12 23 -12 30 2 54 l15 27 18 -29 c17 -27 17 -31 2
-54z"/>
<path d="M907 719 c7 -7 15 -10 18 -7 3 3 -2 9 -12 12 -14 6 -15 5 -6 -5z"/>
<path d="M760 570 c0 -23 35 -44 57 -36 14 6 13 10 -7 31 -28 30 -50 32 -50 5z"/>
<path d="M692 493 c-10 -4 -8 -11 9 -29 12 -13 28 -24 36 -24 19 0 16 30 -4
46 -20 15 -22 15 -41 7z"/>
<path d="M337 422 c-19 -20 -23 -52 -7 -52 16 0 52 40 48 53 -7 19 -24 18 -41
-1z"/>
</g>
</svg>
